<mxfile host="app.diagrams.net" agent="Mozilla/5.0 (Windows NT 10.0; Win64; x64) AppleWebKit/537.36 (KHTML, like Gecko) Chrome/130.0.0.0 Safari/537.36 Edg/130.0.0.0" version="24.8.3">
  <diagram name="Page-1" id="au5NAYJ6tZJRDv4ug42x">
    <mxGraphModel dx="564" dy="559" grid="1" gridSize="10" guides="1" tooltips="1" connect="1" arrows="1" fold="1" page="1" pageScale="1" pageWidth="850" pageHeight="1100" math="0" shadow="0">
      <root>
        <mxCell id="0" />
        <mxCell id="1" parent="0" />
        <mxCell id="TzzsQ6aWSIsokg_xBup3-1" value="" style="rounded=0;whiteSpace=wrap;html=1;" vertex="1" parent="1">
          <mxGeometry x="200" y="70" width="430" height="530" as="geometry" />
        </mxCell>
        <mxCell id="TzzsQ6aWSIsokg_xBup3-2" value="" style="endArrow=none;html=1;rounded=0;entryX=1;entryY=0.25;entryDx=0;entryDy=0;" edge="1" parent="1" target="TzzsQ6aWSIsokg_xBup3-1">
          <mxGeometry width="50" height="50" relative="1" as="geometry">
            <mxPoint x="200" y="200" as="sourcePoint" />
            <mxPoint x="160" y="150" as="targetPoint" />
          </mxGeometry>
        </mxCell>
        <mxCell id="TzzsQ6aWSIsokg_xBup3-4" value="&lt;font style=&quot;font-size: 36px;&quot;&gt;MyDate&lt;/font&gt;" style="text;strokeColor=none;align=center;fillColor=none;html=1;verticalAlign=middle;whiteSpace=wrap;rounded=0;" vertex="1" parent="1">
          <mxGeometry x="385" y="110" width="60" height="30" as="geometry" />
        </mxCell>
        <mxCell id="TzzsQ6aWSIsokg_xBup3-5" value="&lt;font style=&quot;font-size: 24px;&quot;&gt;- year: int&lt;/font&gt;&lt;div&gt;&lt;font style=&quot;font-size: 24px;&quot;&gt;- month: int&lt;/font&gt;&lt;/div&gt;&lt;div&gt;&lt;font style=&quot;font-size: 24px;&quot;&gt;- day: int&lt;/font&gt;&lt;/div&gt;" style="text;strokeColor=none;align=center;fillColor=none;html=1;verticalAlign=middle;whiteSpace=wrap;rounded=0;" vertex="1" parent="1">
          <mxGeometry x="320" y="220" width="190" height="90" as="geometry" />
        </mxCell>
        <mxCell id="TzzsQ6aWSIsokg_xBup3-10" value="" style="endArrow=none;html=1;rounded=0;entryX=1.002;entryY=0.482;entryDx=0;entryDy=0;entryPerimeter=0;exitX=-0.003;exitY=0.476;exitDx=0;exitDy=0;exitPerimeter=0;" edge="1" parent="1" source="TzzsQ6aWSIsokg_xBup3-1" target="TzzsQ6aWSIsokg_xBup3-1">
          <mxGeometry width="50" height="50" relative="1" as="geometry">
            <mxPoint x="200" y="330" as="sourcePoint" />
            <mxPoint x="250" y="280" as="targetPoint" />
          </mxGeometry>
        </mxCell>
        <mxCell id="TzzsQ6aWSIsokg_xBup3-11" value="&lt;font style=&quot;font-size: 24px;&quot;&gt;+ MyDate()&lt;/font&gt;&lt;div&gt;&lt;font style=&quot;font-size: 24px;&quot;&gt;+ MyDate(elapsedTime: long&lt;/font&gt;&lt;/div&gt;&lt;div&gt;&lt;font style=&quot;font-size: 24px;&quot;&gt;+ MyDate(year: int, month: int, day: int)&lt;/font&gt;&lt;/div&gt;&lt;div&gt;&lt;font style=&quot;font-size: 24px;&quot;&gt;+ getYear(): int&lt;/font&gt;&lt;/div&gt;&lt;div&gt;&lt;font style=&quot;font-size: 24px;&quot;&gt;+ getMonth(): int&lt;/font&gt;&lt;/div&gt;&lt;div&gt;&lt;font style=&quot;font-size: 24px;&quot;&gt;+ getDay(): int&lt;/font&gt;&lt;/div&gt;&lt;div&gt;&lt;font style=&quot;font-size: 24px;&quot;&gt;+ setDate(elapsedTime: long): void&lt;/font&gt;&lt;/div&gt;" style="text;strokeColor=none;align=center;fillColor=none;html=1;verticalAlign=middle;whiteSpace=wrap;rounded=0;" vertex="1" parent="1">
          <mxGeometry x="230" y="340" width="380" height="210" as="geometry" />
        </mxCell>
      </root>
    </mxGraphModel>
  </diagram>
</mxfile>
